<svg xmlns="http://www.w3.org/2000/svg" xmlns:xlink="http://www.w3.org/1999/xlink" width="500" zoomAndPan="magnify" viewBox="0 0 375 374.999991" height="500" preserveAspectRatio="xMidYMid meet" version="1.0"><defs><g/><clipPath id="dabef6f7e3"><path d="M 15 8.453125 L 373 8.453125 L 373 361 L 15 361 Z M 15 8.453125 " clip-rule="nonzero"/></clipPath><clipPath id="ba60310da6"><path d="M 0.601562 18 L 118 18 L 118 180 L 0.601562 180 Z M 0.601562 18 " clip-rule="nonzero"/></clipPath><clipPath id="3d30b5a172"><rect x="0" width="256" y="0" height="217"/></clipPath></defs><rect x="-37.5" width="450" fill="#ffffff" y="-37.499999" height="449.999989" fill-opacity="1"/><rect x="-37.5" width="450" fill="#fafafa" y="-37.499999" height="449.999989" fill-opacity="1"/><path fill="#ffffff" d="M 137.542969 354.195312 L 116.117188 345.832031 C 74.210938 324.976562 45.367188 293.453125 29.585938 251.265625 C 13.898438 208.851562 15.820312 165.328125 35.355469 120.6875 C 56.214844 78.785156 87.738281 49.941406 129.921875 34.160156 C 172.335938 18.46875 215.863281 20.394531 260.5 39.929688 C 302.40625 60.789062 331.25 92.3125 347.03125 134.496094 C 362.71875 176.910156 360.796875 220.4375 341.257812 265.074219 C 320.402344 306.976562 288.878906 335.820312 246.691406 351.605469 C 233.078125 356.632812 218.957031 359.855469 204.320312 361.277344 L 182.238281 361.929688 C 167.34375 361.414062 152.445312 358.839844 137.542969 354.195312 " fill-opacity="1" fill-rule="nonzero"/><path fill="#ffffff" d="M 33.46875 131.699219 L 32.308594 135.367188 C 29.574219 142.964844 27.417969 150.734375 25.832031 158.671875 C 25.300781 161.328125 24.839844 163.980469 24.445312 166.628906 L 23.898438 170.644531 C 23.570312 173.300781 23.308594 175.980469 23.109375 178.683594 L 23.125 176.101562 C 23.363281 173.421875 23.667969 170.742188 24.042969 168.066406 L 24.648438 164.078125 C 25.089844 161.402344 25.59375 158.757812 26.160156 156.136719 C 26.730469 153.484375 27.367188 150.863281 28.058594 148.277344 L 29.160156 144.371094 C 29.914062 141.808594 30.738281 139.25 31.625 136.703125 L 33.46875 131.699219 M 136.234375 349.355469 L 138.984375 348.707031 C 139.8125 348.304688 142.960938 348.222656 148.433594 348.464844 C 160.875 351.195312 173.890625 352.582031 187.484375 352.625 C 197.175781 352.707031 208.777344 351.398438 222.285156 348.699219 C 220.757812 349.742188 219.808594 350.648438 219.4375 351.429688 C 228.679688 349.332031 235.191406 347.554688 238.96875 346.097656 L 269.230469 330.359375 C 299.257812 303.546875 318.074219 281.753906 325.675781 264.984375 C 337.367188 240.441406 343.335938 216.871094 343.589844 194.269531 C 343.617188 182.585938 343.039062 173.542969 341.863281 167.136719 C 339.839844 154.136719 336.414062 141.792969 331.582031 130.113281 C 330.757812 126.3125 330.929688 123.136719 332.089844 120.597656 C 329.78125 115.785156 327.238281 111.101562 324.464844 106.542969 L 313.160156 93.15625 C 302.917969 82.046875 295.703125 74.730469 291.511719 71.210938 C 281.621094 62.496094 270.816406 55.117188 259.101562 49.078125 C 254.269531 49.199219 251.378906 49.027344 250.425781 48.566406 L 225.976562 40.246094 C 214.765625 37.527344 205.941406 35.992188 199.511719 35.640625 L 166.171875 37.859375 C 135.140625 42.117188 107.816406 54.535156 84.203125 75.113281 L 101.996094 66.46875 L 116.375 61.101562 C 115.507812 64.320312 113.929688 67.09375 111.640625 69.425781 C 95.332031 80.371094 83.734375 91.082031 76.855469 101.5625 C 67.996094 112.445312 60.910156 124.382812 55.589844 137.382812 C 54.148438 140.578125 52.292969 146.070312 50.023438 153.863281 C 48.890625 162.707031 47.980469 166.804688 47.285156 166.148438 L 45.851562 176.492188 C 44.21875 192.839844 45.386719 208.976562 49.351562 224.898438 L 48.566406 225.292969 C 49.164062 228.410156 48.957031 231.5 47.941406 234.558594 C 47.421875 236.742188 46.746094 237.503906 45.914062 236.84375 C 39.207031 224.859375 34.464844 214.109375 31.679688 204.589844 C 31.09375 208.328125 30.113281 211.289062 28.75 213.476562 C 27.621094 205.695312 27.074219 197.863281 27.109375 189.976562 C 27.171875 176.820312 28.835938 163.867188 32.105469 151.109375 C 36.71875 134.667969 42.140625 121.375 48.367188 111.234375 L 45.40625 112.003906 L 47.53125 106.234375 C 64.496094 79.960938 84.53125 60.753906 107.640625 48.605469 C 101.390625 50.09375 93.605469 53.09375 84.285156 57.613281 C 104.085938 42.445312 126.367188 32.160156 151.125 26.761719 C 139.542969 29.109375 128.796875 32.507812 118.886719 36.960938 C 107.25 41.675781 94.320312 49.574219 80.101562 60.65625 L 79.6875 60.210938 C 81.832031 58.460938 84.019531 56.761719 86.257812 55.113281 C 98.757812 46.308594 109.539062 40.078125 118.609375 36.417969 C 132.75 30.578125 144.632812 26.886719 154.261719 25.34375 L 157.703125 23.199219 C 141.191406 25.734375 125.328125 30.832031 110.113281 38.488281 C 87.226562 50 67.867188 65.839844 52.042969 86.003906 C 35.109375 122.507812 27.03125 141.503906 27.816406 143 L 22.644531 177.925781 C 22.015625 186.003906 21.984375 194.101562 22.554688 202.210938 C 24.839844 232.546875 34.6875 260.191406 52.09375 285.152344 C 61.746094 299.472656 76.429688 314.027344 96.148438 328.820312 C 97.011719 329.421875 98.222656 331.78125 99.785156 335.90625 L 93.363281 333.246094 L 95.542969 335.457031 C 106 345.398438 118.011719 353.921875 131.578125 361.023438 C 126.855469 364.703125 118.585938 363.296875 106.769531 356.800781 C 89.117188 347.875 75.226562 338.742188 65.101562 329.398438 C 22.042969 291.300781 1.238281 241.976562 2.683594 181.421875 C 3.890625 177.015625 5.726562 174.136719 8.183594 172.785156 C 6.941406 187.769531 6.988281 196.3125 8.332031 198.410156 C 8.042969 185.507812 8.480469 175.371094 9.636719 168.007812 C 10.46875 181.125 11.230469 187.933594 11.929688 188.433594 L 21.445312 136.832031 C 21.378906 135.667969 22.703125 131.730469 25.421875 125.011719 C 28.667969 117.066406 32.488281 109.390625 36.882812 101.988281 L 61.769531 65.171875 C 73.378906 54.113281 83.613281 46.011719 92.46875 40.867188 C 119.375 29.757812 137.464844 23.324219 146.746094 21.566406 C 156.503906 18.988281 169.25 17.480469 184.976562 17.035156 C 190.203125 17.214844 194.503906 18.429688 197.882812 20.675781 C 210.464844 21.800781 220.160156 23.320312 226.964844 25.226562 C 251.832031 31.421875 274.222656 42.628906 294.140625 58.84375 C 334.878906 92.28125 355.75 137.851562 356.75 195.550781 C 356.597656 220.011719 349.714844 245.546875 336.109375 272.15625 C 328.097656 287.597656 310.640625 306.113281 283.730469 327.699219 C 275.660156 333.222656 269.847656 336.832031 266.300781 338.527344 L 233.289062 350.214844 C 225.394531 352.546875 217.367188 354.285156 209.210938 355.425781 C 184.351562 358.816406 160.023438 356.792969 136.234375 349.355469 " fill-opacity="1" fill-rule="nonzero"/><g clip-path="url(#dabef6f7e3)"><path fill="#ffffff" d="M 211.558594 23.390625 L 207.710938 23.382812 L 203.664062 23.269531 L 199.652344 23.253906 L 195.617188 23.339844 L 191.585938 23.519531 L 187.550781 23.800781 L 183.535156 24.179688 L 179.519531 24.660156 L 175.53125 25.234375 L 171.539062 25.910156 L 167.585938 26.675781 L 163.628906 27.546875 L 165.183594 26.992188 L 169.140625 26.164062 L 173.117188 25.433594 L 177.109375 24.796875 L 181.117188 24.261719 L 185.132812 23.824219 L 189.167969 23.484375 L 193.191406 23.242188 L 197.246094 23.097656 L 201.269531 23.054688 L 205.296875 23.109375 L 209.347656 23.265625 L 211.558594 23.390625 M 33.15625 188.289062 L 34.585938 190.714844 C 35.214844 191.382812 36.234375 194.359375 37.648438 199.640625 C 38.777344 212.300781 41.339844 225.125 45.335938 238.125 C 47.9375 247.15625 52.824219 258.097656 59.988281 270.941406 L 56.347656 268.722656 C 57.714844 271.820312 61.175781 277.347656 66.726562 285.308594 L 84.808594 304.054688 C 89.609375 308.851562 92.546875 311.449219 93.617188 311.855469 C 124.960938 330.515625 150.261719 341.476562 169.519531 344.738281 C 195.136719 349.265625 220.6875 347.933594 246.167969 340.746094 C 252.46875 339.09375 260.910156 335.785156 271.492188 330.824219 C 283.277344 324.921875 293.988281 317.933594 303.625 309.867188 C 306.992188 308.042969 310.066406 307.242188 312.84375 307.464844 C 316.738281 303.8125 320.441406 299.980469 323.957031 295.96875 L 333.371094 281.183594 L 344.433594 261.085938 L 349.386719 250.371094 C 354.683594 236.921875 358.007812 225.621094 359.363281 216.46875 L 357.472656 207.832031 C 358.277344 193.75 358.410156 183.945312 357.875 178.414062 C 357.386719 170.707031 356.34375 163.09375 354.742188 155.578125 C 347.417969 134.8125 342.949219 123.238281 341.332031 120.859375 C 327.589844 92.707031 307.296875 70.5625 280.457031 54.417969 C 289.984375 62.929688 297.929688 72.03125 304.289062 81.726562 C 300.980469 81.769531 297.882812 81.015625 295.003906 79.460938 C 285.972656 72.308594 277.644531 66.660156 270.023438 62.515625 L 250.492188 54.566406 C 237.304688 49.703125 223.699219 46.839844 209.671875 45.976562 C 199.917969 45.476562 191.101562 45.761719 183.226562 46.835938 C 178.605469 47.417969 174.027344 48.222656 169.484375 49.253906 C 157.382812 51.589844 142.816406 57.402344 125.789062 66.695312 C 119.332031 68.476562 115.082031 68.886719 113.03125 67.929688 C 122.464844 58.054688 131.253906 50.300781 139.390625 44.671875 L 139.617188 43.820312 L 132.066406 43.910156 C 131.722656 43.394531 133.199219 42.5 136.496094 41.230469 C 158.464844 31.660156 181.410156 27.164062 205.328125 27.746094 C 215.9375 28.070312 226.222656 29.328125 236.191406 31.519531 C 235.371094 30.621094 234.636719 29.667969 233.980469 28.652344 C 236.214844 28.96875 238.519531 29.199219 240.894531 29.34375 C 244.828125 30.175781 251.195312 32.195312 259.996094 35.394531 C 280.1875 43.222656 298.148438 54.578125 313.878906 69.464844 C 310.871094 64.289062 305.773438 57.878906 298.585938 50.234375 C 317.914062 63.351562 334.601562 81.703125 348.640625 105.292969 C 344.117188 96.671875 336.886719 86.589844 326.941406 75.050781 C 323.246094 70.941406 319.355469 67.019531 315.273438 63.289062 C 310.023438 58.332031 302.636719 52.566406 293.121094 45.992188 L 296.09375 47.417969 C 318.710938 62.601562 337.824219 83.71875 353.429688 110.765625 C 347.839844 97.710938 338.984375 84.621094 326.859375 71.492188 C 306.042969 50.164062 284.136719 35.492188 261.128906 27.476562 C 222.648438 22.222656 200.757812 20.222656 195.464844 21.472656 L 164.679688 26.773438 C 156.765625 28.554688 149.019531 30.910156 141.441406 33.832031 C 113.121094 44.914062 89.535156 62.382812 70.675781 86.242188 C 57.199219 104.082031 47.53125 122.652344 41.679688 141.949219 C 39.609375 145.667969 37.417969 147.789062 35.109375 148.3125 L 35.351562 142.644531 C 27.503906 158.859375 22.597656 174.027344 20.625 188.152344 C 15.59375 183.480469 14.484375 174.667969 17.296875 161.710938 C 20.554688 142.222656 25.113281 126.253906 30.980469 113.808594 C 54.179688 61.503906 94.96875 26.601562 153.34375 9.101562 C 157.570312 8.667969 161.316406 9.367188 164.578125 11.195312 L 144.671875 16.902344 L 141.230469 18.710938 L 141.796875 18.824219 C 150.113281 15.917969 158.589844 13.636719 167.226562 11.980469 L 167.945312 12.128906 C 164.246094 13.339844 158.382812 15.828125 150.359375 19.597656 L 152.078125 19.738281 L 204.183594 13.320312 C 205.382812 13.070312 209.585938 13.234375 216.792969 13.816406 C 225.328125 14.589844 233.777344 15.980469 242.140625 17.996094 L 284.617188 30.828125 C 298.640625 38.640625 309.40625 45.996094 316.917969 52.898438 L 339.601562 81.101562 C 342.359375 84.40625 346.375 90.3125 351.648438 98.8125 C 359.082031 111.296875 364.707031 124.214844 368.527344 137.566406 C 369.164062 138.996094 369.058594 142.257812 368.210938 147.359375 C 370.691406 158.140625 372.222656 169.175781 372.804688 180.460938 C 373.90625 206.070312 369.554688 230.726562 359.753906 254.425781 C 339.476562 302.988281 301.953125 336.234375 247.183594 354.171875 C 219.546875 361.746094 191.753906 362.488281 163.804688 356.394531 C 161.058594 355.785156 158.335938 355.113281 155.640625 354.375 L 137.921875 346.714844 C 118.652344 337.339844 104.652344 328.953125 95.917969 321.558594 C 91.542969 318.109375 87.390625 314.488281 83.457031 310.699219 C 81.875 309.054688 80.851562 307.222656 80.378906 305.203125 C 74.011719 298.191406 69.613281 293 67.1875 289.621094 C 60.554688 280.855469 54.835938 271.53125 50.03125 261.644531 C 39.152344 239.761719 33.527344 215.308594 33.15625 188.289062 " fill-opacity="1" fill-rule="nonzero"/></g><g transform="matrix(1, 0, 0, 1, 69, 78)"><g clip-path="url(#3d30b5a172)"><g clip-path="url(#ba60310da6)"><g fill="#000000" fill-opacity="1"><g transform="translate(0.831768, 165.762891)"><g><path d="M 107.671875 -146.984375 C 108.867188 -146.859375 109.828125 -146.554688 110.546875 -146.078125 C 111.140625 -145.722656 111.976562 -145.003906 113.0625 -143.921875 C 114.132812 -142.609375 115.03125 -140.992188 115.75 -139.078125 C 116.46875 -137.046875 116.765625 -135.015625 116.640625 -132.984375 C 116.640625 -131.898438 116.222656 -129.382812 115.390625 -125.4375 C 114.554688 -121.488281 113.597656 -117.601562 112.515625 -113.78125 C 112.035156 -112.21875 111.554688 -110.300781 111.078125 -108.03125 C 110.597656 -105.757812 110.242188 -103.847656 110.015625 -102.296875 C 109.648438 -100.617188 109.226562 -98.582031 108.75 -96.1875 C 108.269531 -93.675781 107.789062 -91.523438 107.3125 -89.734375 C 106.957031 -87.816406 106.421875 -85.300781 105.703125 -82.1875 C 104.984375 -78.957031 104.382812 -76.085938 103.90625 -73.578125 C 103.3125 -70.941406 102.59375 -68.007812 101.75 -64.78125 C 101.03125 -61.4375 100.375 -58.742188 99.78125 -56.703125 C 99.300781 -54.671875 98.757812 -52.457031 98.15625 -50.0625 C 97.6875 -47.789062 97.332031 -46 97.09375 -44.6875 C 96.613281 -42.289062 96.070312 -39.65625 95.46875 -36.78125 L 93.671875 -27.8125 C 92.484375 -22.1875 91.410156 -17.039062 90.453125 -12.375 C 89.367188 -7.59375 88.707031 -4.84375 88.46875 -4.125 C 87.875 -2.925781 86.976562 -1.375 85.78125 0.53125 C 84.582031 2.445312 83.503906 3.882812 82.546875 4.84375 C 81.234375 6.15625 80.097656 6.21875 79.140625 5.03125 C 78.066406 3.832031 77.050781 1.195312 76.09375 -2.875 C 75.613281 -4.90625 75.429688 -6.519531 75.546875 -7.71875 C 75.546875 -9.03125 76.085938 -12.320312 77.171875 -17.59375 C 79.078125 -27.519531 80.8125 -36.070312 82.375 -43.25 C 83.925781 -50.550781 85.0625 -55.394531 85.78125 -57.78125 C 86.132812 -59.101562 86.671875 -61.378906 87.390625 -64.609375 C 88.234375 -67.835938 89.015625 -71.066406 89.734375 -74.296875 C 90.453125 -77.523438 91.171875 -80.992188 91.890625 -84.703125 C 92.722656 -88.410156 93.378906 -91.222656 93.859375 -93.140625 C 94.929688 -97.566406 95.585938 -101.035156 95.828125 -103.546875 C 96.191406 -106.054688 96.070312 -107.132812 95.46875 -106.78125 C 94.632812 -106.300781 92.601562 -102.410156 89.375 -95.109375 C 86.144531 -87.929688 82.796875 -79.738281 79.328125 -70.53125 C 77.171875 -65.144531 75.015625 -58.863281 72.859375 -51.6875 C 70.703125 -44.382812 68.429688 -36.25 66.046875 -27.28125 C 63.648438 -18.0625 61.613281 -10.941406 59.9375 -5.921875 C 58.257812 -1.015625 56.765625 2.273438 55.453125 3.953125 C 53.296875 6.703125 50.722656 8.375 47.734375 8.96875 C 44.859375 9.570312 42.40625 8.972656 40.375 7.171875 C 38.9375 5.984375 37.800781 4.429688 36.96875 2.515625 C 36.25 0.597656 35.59375 -2.15625 35 -5.75 C 34.519531 -8.976562 34.21875 -13.757812 34.09375 -20.09375 C 34.09375 -26.320312 34.332031 -31.945312 34.8125 -36.96875 C 34.9375 -39 35.117188 -41.390625 35.359375 -44.140625 C 35.597656 -47.015625 35.835938 -49.46875 36.078125 -51.5 C 36.191406 -53.539062 36.425781 -56.113281 36.78125 -59.21875 C 37.144531 -62.332031 37.445312 -65.023438 37.6875 -67.296875 C 37.925781 -69.691406 38.164062 -72.203125 38.40625 -74.828125 C 38.644531 -77.585938 38.820312 -79.742188 38.9375 -81.296875 C 39.0625 -82.734375 39.179688 -84.523438 39.296875 -86.671875 C 39.535156 -88.710938 39.773438 -90.390625 40.015625 -91.703125 C 40.617188 -95.773438 40.617188 -97.691406 40.015625 -97.453125 C 39.421875 -97.328125 38.40625 -95.171875 36.96875 -90.984375 C 36.488281 -89.671875 35.832031 -87.878906 35 -85.609375 C 34.15625 -83.328125 33.375 -81.234375 32.65625 -79.328125 C 32.175781 -78.128906 30.921875 -74.296875 28.890625 -67.828125 C 26.972656 -61.367188 24.878906 -54.550781 22.609375 -47.375 C 21.410156 -43.550781 20.210938 -39.785156 19.015625 -36.078125 C 17.941406 -32.484375 16.925781 -29.367188 15.96875 -26.734375 C 10.46875 -10.460938 6.703125 0.363281 4.671875 5.75 C 2.753906 11.125 1.613281 13.8125 1.25 13.8125 C 0.414062 13.8125 0 11.898438 0 8.078125 L 0 4.484375 C 0.351562 -1.734375 1.191406 -8.375 2.515625 -15.4375 C 2.867188 -17.113281 3.945312 -21.238281 5.75 -27.8125 C 7.65625 -34.507812 9.6875 -41.570312 11.84375 -49 C 13.394531 -53.894531 14.832031 -58.554688 16.15625 -62.984375 C 17.59375 -67.410156 18.785156 -70.941406 19.734375 -73.578125 C 20.453125 -75.734375 21.410156 -78.484375 22.609375 -81.828125 C 23.804688 -85.054688 24.820312 -87.867188 25.65625 -90.265625 C 26.851562 -93.492188 28.171875 -96.90625 29.609375 -100.5 C 31.046875 -104.082031 32.539062 -107.609375 34.09375 -111.078125 C 36.96875 -117.660156 39.78125 -123.46875 42.53125 -128.5 C 45.164062 -133.632812 47.019531 -136.5625 48.09375 -137.28125 C 48.8125 -137.757812 49.347656 -137.941406 49.703125 -137.828125 C 50.066406 -137.703125 50.726562 -137.160156 51.6875 -136.203125 C 52.28125 -135.722656 52.9375 -135.242188 53.65625 -134.765625 C 54.375 -134.410156 54.972656 -134.175781 55.453125 -134.0625 C 55.804688 -134.0625 56.34375 -134 57.0625 -133.875 C 56.945312 -132.4375 56.890625 -130.285156 56.890625 -127.421875 C 56.765625 -125.617188 56.582031 -123.285156 56.34375 -120.421875 C 56.101562 -117.429688 55.863281 -114.738281 55.625 -112.34375 C 55.382812 -109.945312 55.207031 -107.550781 55.09375 -105.15625 C 54.851562 -102.644531 54.734375 -100.851562 54.734375 -99.78125 C 54.734375 -98.695312 54.675781 -97.019531 54.5625 -94.75 C 54.320312 -92.363281 54.082031 -90.03125 53.84375 -87.75 C 53.601562 -85.476562 53.300781 -82.785156 52.9375 -79.671875 C 52.582031 -76.566406 52.34375 -74 52.21875 -71.96875 C 51.976562 -69.8125 51.738281 -67.414062 51.5 -64.78125 C 51.257812 -62.03125 51.019531 -59.878906 50.78125 -58.328125 C 49.59375 -46.960938 48.816406 -37.390625 48.453125 -29.609375 C 48.097656 -21.835938 48.28125 -18.304688 49 -19.015625 C 49.113281 -19.140625 49.585938 -20.578125 50.421875 -23.328125 C 51.265625 -26.203125 52.164062 -29.492188 53.125 -33.203125 C 55.03125 -40.859375 57.125 -48.515625 59.40625 -56.171875 C 61.789062 -63.828125 63.460938 -68.851562 64.421875 -71.25 C 64.898438 -72.207031 65.378906 -73.398438 65.859375 -74.828125 C 66.460938 -76.265625 66.941406 -77.523438 67.296875 -78.609375 C 68.253906 -81.117188 69.507812 -84.285156 71.0625 -88.109375 C 72.625 -91.941406 74.421875 -96.070312 76.453125 -100.5 C 80.160156 -108.507812 84.046875 -116.523438 88.109375 -124.546875 C 92.179688 -132.554688 95.296875 -138.175781 97.453125 -141.40625 C 98.765625 -143.320312 100.078125 -144.757812 101.390625 -145.71875 C 102.828125 -146.5625 104.382812 -146.984375 106.0625 -146.984375 Z M 103.015625 -111.984375 C 102.648438 -110.546875 102.109375 -107.851562 101.390625 -103.90625 C 100.671875 -99.84375 99.894531 -95.71875 99.0625 -91.53125 C 98.582031 -88.894531 97.804688 -85.300781 96.734375 -80.75 C 95.773438 -76.207031 94.753906 -71.722656 93.671875 -67.296875 C 93.078125 -64.898438 92.539062 -62.628906 92.0625 -60.484375 C 91.582031 -58.203125 91.164062 -56.226562 90.8125 -54.5625 C 89.488281 -48.09375 88.707031 -43.90625 88.46875 -42 C 88.226562 -39.957031 88.171875 -38.9375 88.296875 -38.9375 C 88.410156 -38.9375 88.585938 -39.117188 88.828125 -39.484375 C 88.953125 -39.835938 89.132812 -40.253906 89.375 -40.734375 C 89.613281 -41.335938 90.03125 -42.832031 90.625 -45.21875 C 91.226562 -47.613281 91.945312 -50.546875 92.78125 -54.015625 C 93.851562 -58.441406 94.988281 -63.347656 96.1875 -68.734375 C 97.5 -74.117188 98.632812 -79.144531 99.59375 -83.8125 C 100.550781 -88.113281 101.332031 -91.820312 101.9375 -94.9375 C 102.65625 -98.039062 103.070312 -100.070312 103.1875 -101.03125 C 103.3125 -102.59375 103.492188 -104.328125 103.734375 -106.234375 C 104.085938 -108.148438 104.320312 -109.585938 104.4375 -110.546875 C 104.800781 -112.941406 105.039062 -114.738281 105.15625 -115.9375 C 105.15625 -117.25 105.035156 -117.90625 104.796875 -117.90625 C 104.554688 -117.90625 104.320312 -117.425781 104.09375 -116.46875 C 103.726562 -115.507812 103.367188 -114.015625 103.015625 -111.984375 Z M 46.65625 -97.8125 L 46.484375 -97.8125 C 46.117188 -97.445312 45.757812 -95.648438 45.40625 -92.421875 C 44.925781 -89.066406 44.566406 -85.414062 44.328125 -81.46875 C 44.203125 -79.320312 44.082031 -77.226562 43.96875 -75.1875 C 43.84375 -73.039062 43.78125 -71.128906 43.78125 -69.453125 C 43.90625 -63.472656 44.144531 -61.378906 44.5 -63.171875 C 44.863281 -64.960938 45.222656 -70.109375 45.578125 -78.609375 C 45.816406 -82.429688 46.054688 -86.019531 46.296875 -89.375 C 46.535156 -92.601562 46.71875 -94.632812 46.84375 -95.46875 L 46.84375 -97.265625 C 46.84375 -97.628906 46.78125 -97.8125 46.65625 -97.8125 Z M 46.65625 -97.8125 "/></g></g></g></g><g fill="#000000" fill-opacity="1"><g transform="translate(129.570594, 165.762891)"><g><path d="M 106.78125 -148.953125 C 107.132812 -147.867188 107.070312 -146.429688 106.59375 -144.640625 C 106.113281 -142.847656 105.097656 -140.578125 103.546875 -137.828125 C 102.828125 -136.742188 102.171875 -135.546875 101.578125 -134.234375 C 100.859375 -133.035156 100.378906 -132.140625 100.140625 -131.546875 C 99.898438 -130.941406 99.359375 -130.039062 98.515625 -128.84375 C 97.679688 -127.65625 96.785156 -126.460938 95.828125 -125.265625 C 94.753906 -124.179688 93.257812 -122.566406 91.34375 -120.421875 C 89.425781 -118.265625 87.628906 -116.226562 85.953125 -114.3125 C 82.242188 -110.125 79.132812 -106.597656 76.625 -103.734375 C 74 -100.859375 71.066406 -97.6875 67.828125 -94.21875 C 66.515625 -92.894531 65.019531 -91.21875 63.34375 -89.1875 C 61.675781 -87.269531 60.300781 -85.65625 59.21875 -84.34375 C 58.144531 -83.03125 56.289062 -80.878906 53.65625 -77.890625 C 51.019531 -74.898438 48.328125 -71.96875 45.578125 -69.09375 C 40.429688 -63.59375 36.425781 -59.164062 33.5625 -55.8125 C 30.6875 -52.457031 29.25 -50.539062 29.25 -50.0625 C 29.25 -49.582031 29.847656 -49.226562 31.046875 -49 C 32.359375 -48.757812 33.914062 -48.757812 35.71875 -49 C 36.664062 -49 38.578125 -48.9375 41.453125 -48.8125 C 44.328125 -48.695312 47.316406 -48.519531 50.421875 -48.28125 C 63.703125 -47.320312 75.128906 -45.46875 84.703125 -42.71875 C 94.390625 -39.957031 101.566406 -36.601562 106.234375 -32.65625 C 108.148438 -30.863281 109.109375 -29.671875 109.109375 -29.078125 C 109.109375 -28.835938 109.050781 -28.71875 108.9375 -28.71875 C 108.457031 -28.113281 105.644531 -27.453125 100.5 -26.734375 C 97.144531 -26.378906 94.390625 -26.320312 92.234375 -26.5625 C 89.960938 -26.800781 86.253906 -27.640625 81.109375 -29.078125 C 76.328125 -30.390625 71.304688 -31.460938 66.046875 -32.296875 C 60.660156 -33.140625 53.957031 -33.921875 45.9375 -34.640625 C 41.75 -34.992188 37.921875 -35.351562 34.453125 -35.71875 C 30.867188 -36.070312 28.71875 -36.367188 28 -36.609375 C 27.039062 -36.722656 26.257812 -36.78125 25.65625 -36.78125 C 25.0625 -36.90625 24.644531 -36.847656 24.40625 -36.609375 C 24.289062 -36.492188 23.875 -35.054688 23.15625 -32.296875 C 22.550781 -29.429688 21.832031 -26.144531 21 -22.4375 C 20.394531 -19.6875 19.914062 -17.234375 19.5625 -15.078125 C 19.082031 -13.046875 18.664062 -11.191406 18.3125 -9.515625 C 17.46875 -5.921875 16.804688 -3.285156 16.328125 -1.609375 C 15.847656 0.0546875 15.191406 1.910156 14.359375 3.953125 C 13.398438 6.578125 12.082031 8.96875 10.40625 11.125 C 8.851562 13.394531 7.65625 14.53125 6.8125 14.53125 C 6.570312 14.53125 6.21875 14.171875 5.75 13.453125 C 5.269531 12.859375 4.789062 12.082031 4.3125 11.125 C 2.988281 8.132812 2.328125 5.265625 2.328125 2.515625 C 2.328125 -0.359375 2.988281 -5.144531 4.3125 -11.84375 C 4.90625 -15.070312 5.441406 -17.882812 5.921875 -20.28125 C 6.273438 -22.675781 6.394531 -23.929688 6.28125 -24.046875 C 6.164062 -24.171875 5.75 -23.929688 5.03125 -23.328125 C 4.3125 -22.847656 3.472656 -22.128906 2.515625 -21.171875 C 0.484375 -19.265625 -1.367188 -18.070312 -3.046875 -17.59375 C -4.847656 -17.113281 -6.703125 -17.289062 -8.609375 -18.125 C -9.085938 -18.363281 -9.867188 -18.660156 -10.953125 -19.015625 C -10.953125 -19.972656 -10.890625 -21.289062 -10.765625 -22.96875 C -10.523438 -24.644531 -10.226562 -25.960938 -9.875 -26.921875 C -9.507812 -27.878906 -8.609375 -29.191406 -7.171875 -30.859375 C -5.140625 -33.492188 -2.210938 -36.90625 1.609375 -41.09375 C 5.316406 -45.40625 7.769531 -48.039062 8.96875 -49 C 10.40625 -50.1875 11.539062 -51.5 12.375 -52.9375 C 13.332031 -54.375 14.351562 -56.769531 15.4375 -60.125 C 16.03125 -61.914062 16.628906 -64.066406 17.234375 -66.578125 C 17.953125 -69.210938 18.785156 -72.320312 19.734375 -75.90625 C 20.335938 -78.0625 21.238281 -81.175781 22.4375 -85.25 C 23.507812 -89.3125 24.582031 -93.078125 25.65625 -96.546875 C 26.613281 -100.015625 27.691406 -103.90625 28.890625 -108.21875 C 30.085938 -112.519531 31.046875 -115.925781 31.765625 -118.4375 C 33.921875 -126.8125 36.613281 -134.050781 39.84375 -140.15625 C 43.070312 -146.257812 45.703125 -149.128906 47.734375 -148.765625 C 48.210938 -148.648438 48.515625 -148.234375 48.640625 -147.515625 C 48.753906 -146.796875 48.753906 -145.0625 48.640625 -142.3125 C 48.398438 -136.207031 47.617188 -129.6875 46.296875 -122.75 C 44.859375 -115.6875 42.40625 -105.695312 38.9375 -92.78125 C 37.976562 -89.425781 37.257812 -86.554688 36.78125 -84.171875 C 36.1875 -81.773438 35.953125 -80.515625 36.078125 -80.390625 C 36.316406 -80.148438 37.691406 -81.347656 40.203125 -83.984375 C 42.828125 -86.617188 45.21875 -89.3125 47.375 -92.0625 C 48.457031 -93.375 49.710938 -94.867188 51.140625 -96.546875 C 52.578125 -98.097656 53.71875 -99.414062 54.5625 -100.5 C 55.507812 -101.457031 56.941406 -103.007812 58.859375 -105.15625 C 60.890625 -107.4375 62.804688 -109.59375 64.609375 -111.625 C 66.515625 -113.78125 68.488281 -116.050781 70.53125 -118.4375 C 72.675781 -120.71875 74.289062 -122.453125 75.375 -123.640625 L 80.21875 -129.03125 C 82.375 -131.425781 84.40625 -133.695312 86.3125 -135.84375 C 88.226562 -138 90.144531 -139.972656 92.0625 -141.765625 C 93.976562 -143.679688 95.296875 -144.878906 96.015625 -145.359375 L 98.703125 -147.15625 C 99.660156 -147.875 100.554688 -148.472656 101.390625 -148.953125 C 102.234375 -149.546875 102.953125 -149.960938 103.546875 -150.203125 C 104.140625 -150.566406 104.617188 -150.75 104.984375 -150.75 C 105.460938 -150.75 105.820312 -150.566406 106.0625 -150.203125 C 106.300781 -149.960938 106.539062 -149.546875 106.78125 -148.953125 Z M 40.5625 -77.703125 C 39.363281 -76.023438 37.867188 -74.050781 36.078125 -71.78125 C 34.273438 -69.625 32.476562 -67.53125 30.6875 -65.5 C 29.25 -63.820312 27.273438 -61.367188 24.765625 -58.140625 C 22.367188 -54.910156 20.632812 -52.335938 19.5625 -50.421875 C 18.25 -48.273438 18.25 -47.914062 19.5625 -49.34375 C 21 -50.664062 23.867188 -54.019531 28.171875 -59.40625 C 30.441406 -62.03125 32.835938 -64.78125 35.359375 -67.65625 C 37.867188 -70.644531 39.78125 -72.796875 41.09375 -74.109375 C 42.40625 -75.546875 43.484375 -76.804688 44.328125 -77.890625 C 45.285156 -79.078125 45.703125 -79.734375 45.578125 -79.859375 C 45.460938 -80.097656 46.484375 -81.414062 48.640625 -83.8125 C 50.910156 -86.195312 53.597656 -89.003906 56.703125 -92.234375 C 65.921875 -101.566406 71.90625 -107.847656 74.65625 -111.078125 C 77.53125 -114.316406 78.304688 -115.9375 76.984375 -115.9375 C 76.742188 -115.9375 74.472656 -113.78125 70.171875 -109.46875 C 65.984375 -105.164062 61.492188 -100.5 56.703125 -95.46875 C 52.753906 -91.40625 49.226562 -87.640625 46.125 -84.171875 C 42.894531 -80.703125 41.039062 -78.546875 40.5625 -77.703125 Z M 34.453125 -108.578125 C 33.492188 -106.421875 32.359375 -103.304688 31.046875 -99.234375 C 29.734375 -95.171875 28.597656 -91.285156 27.640625 -87.578125 C 26.921875 -85.066406 26.378906 -82.789062 26.015625 -80.75 C 25.535156 -78.84375 25.296875 -77.53125 25.296875 -76.8125 C 25.296875 -76.332031 25.359375 -75.671875 25.484375 -74.828125 C 25.597656 -75.304688 25.894531 -75.96875 26.375 -76.8125 C 26.613281 -77.40625 27.09375 -78.835938 27.8125 -81.109375 C 28.65625 -83.503906 29.554688 -86.078125 30.515625 -88.828125 C 32.546875 -95.046875 34.039062 -99.953125 35 -103.546875 C 35.957031 -107.140625 36.316406 -109.351562 36.078125 -110.1875 L 36.078125 -110.71875 L 35.890625 -110.90625 C 35.648438 -110.90625 35.472656 -110.722656 35.359375 -110.359375 Z M 46.296875 -44.140625 L 45.9375 -43.78125 L 45.9375 -43.609375 C 46.0625 -43.609375 47.019531 -43.488281 48.8125 -43.25 C 50.488281 -43.007812 52.523438 -42.710938 54.921875 -42.359375 C 59.578125 -41.753906 62.925781 -41.394531 64.96875 -41.28125 C 66.875 -41.039062 67.828125 -41.039062 67.828125 -41.28125 C 67.828125 -41.875 65.019531 -42.53125 59.40625 -43.25 C 53.78125 -44.082031 49.832031 -44.5 47.5625 -44.5 C 47.195312 -44.5 46.894531 -44.441406 46.65625 -44.328125 C 46.539062 -44.328125 46.421875 -44.265625 46.296875 -44.140625 Z M 17.046875 -32.84375 C 16.566406 -32 15.910156 -29.425781 15.078125 -25.125 C 14.117188 -20.695312 13.640625 -17.882812 13.640625 -16.6875 C 13.640625 -15.132812 13.878906 -15.015625 14.359375 -16.328125 C 14.953125 -17.765625 15.671875 -20.695312 16.515625 -25.125 C 17.234375 -28 17.710938 -30.210938 17.953125 -31.765625 C 18.066406 -33.203125 18.003906 -33.859375 17.765625 -33.734375 C 17.648438 -33.734375 17.53125 -33.675781 17.40625 -33.5625 C 17.289062 -33.4375 17.171875 -33.195312 17.046875 -32.84375 Z M 17.046875 -32.84375 "/></g></g></g></g></g></svg>